<?xml version="1.0" encoding="UTF-8"?>
<svg xmlns="http://www.w3.org/2000/svg" width="1000" height="720" viewBox="0 0 1000 720" font-family="Georgia, 'Times New Roman', serif">
  <rect width="1000" height="720" fill="#ffffff"/>
  <rect x="16" y="16" width="968" height="688" fill="none" stroke="#c9a84c" stroke-width="4"/>
  <rect x="30" y="30" width="940" height="660" fill="none" stroke="#1a1f4e" stroke-width="1.2"/>
  <rect x="22" y="22" width="16" height="16" fill="#c9a84c" transform="rotate(45 30 30)"/><rect x="962" y="22" width="16" height="16" fill="#c9a84c" transform="rotate(45 970 30)"/><rect x="22" y="682" width="16" height="16" fill="#c9a84c" transform="rotate(45 30 690)"/><rect x="962" y="682" width="16" height="16" fill="#c9a84c" transform="rotate(45 970 690)"/>
  <text x="500" y="92" text-anchor="middle" font-size="25" font-weight="bold" fill="#1a1f4e" letter-spacing="1.5">KRRISHNA DHWARKA FOUNDATION BHARAT</text>
  <text x="500" y="120" text-anchor="middle" font-size="15" fill="#a8842f" font-style="italic">शिक्षा का प्रकाश  &#8226;  Light of Education</text>
  <line x1="350" y1="138" x2="650" y2="138" stroke="#c9a84c" stroke-width="1.5"/>
  <g transform="translate(500,210)">
    <circle r="46" fill="#1a1f4e"/>
    <circle r="46" fill="none" stroke="#c9a84c" stroke-width="2.5"/>
    <line x1="54.0" y1="0.0" x2="60.0" y2="0.0" stroke="#c9a84c" stroke-width="1.5"/><line x1="53.2" y1="9.4" x2="59.1" y2="10.4" stroke="#c9a84c" stroke-width="1.5"/><line x1="50.7" y1="18.5" x2="56.4" y2="20.5" stroke="#c9a84c" stroke-width="1.5"/><line x1="46.8" y1="27.0" x2="52.0" y2="30.0" stroke="#c9a84c" stroke-width="1.5"/><line x1="41.4" y1="34.7" x2="46.0" y2="38.6" stroke="#c9a84c" stroke-width="1.5"/><line x1="34.7" y1="41.4" x2="38.6" y2="46.0" stroke="#c9a84c" stroke-width="1.5"/><line x1="27.0" y1="46.8" x2="30.0" y2="52.0" stroke="#c9a84c" stroke-width="1.5"/><line x1="18.5" y1="50.7" x2="20.5" y2="56.4" stroke="#c9a84c" stroke-width="1.5"/><line x1="9.4" y1="53.2" x2="10.4" y2="59.1" stroke="#c9a84c" stroke-width="1.5"/><line x1="0.0" y1="54.0" x2="0.0" y2="60.0" stroke="#c9a84c" stroke-width="1.5"/><line x1="-9.4" y1="53.2" x2="-10.4" y2="59.1" stroke="#c9a84c" stroke-width="1.5"/><line x1="-18.5" y1="50.7" x2="-20.5" y2="56.4" stroke="#c9a84c" stroke-width="1.5"/><line x1="-27.0" y1="46.8" x2="-30.0" y2="52.0" stroke="#c9a84c" stroke-width="1.5"/><line x1="-34.7" y1="41.4" x2="-38.6" y2="46.0" stroke="#c9a84c" stroke-width="1.5"/><line x1="-41.4" y1="34.7" x2="-46.0" y2="38.6" stroke="#c9a84c" stroke-width="1.5"/><line x1="-46.8" y1="27.0" x2="-52.0" y2="30.0" stroke="#c9a84c" stroke-width="1.5"/><line x1="-50.7" y1="18.5" x2="-56.4" y2="20.5" stroke="#c9a84c" stroke-width="1.5"/><line x1="-53.2" y1="9.4" x2="-59.1" y2="10.4" stroke="#c9a84c" stroke-width="1.5"/><line x1="-54.0" y1="0.0" x2="-60.0" y2="0.0" stroke="#c9a84c" stroke-width="1.5"/><line x1="-53.2" y1="-9.4" x2="-59.1" y2="-10.4" stroke="#c9a84c" stroke-width="1.5"/><line x1="-50.7" y1="-18.5" x2="-56.4" y2="-20.5" stroke="#c9a84c" stroke-width="1.5"/><line x1="-46.8" y1="-27.0" x2="-52.0" y2="-30.0" stroke="#c9a84c" stroke-width="1.5"/><line x1="-41.4" y1="-34.7" x2="-46.0" y2="-38.6" stroke="#c9a84c" stroke-width="1.5"/><line x1="-34.7" y1="-41.4" x2="-38.6" y2="-46.0" stroke="#c9a84c" stroke-width="1.5"/><line x1="-27.0" y1="-46.8" x2="-30.0" y2="-52.0" stroke="#c9a84c" stroke-width="1.5"/><line x1="-18.5" y1="-50.7" x2="-20.5" y2="-56.4" stroke="#c9a84c" stroke-width="1.5"/><line x1="-9.4" y1="-53.2" x2="-10.4" y2="-59.1" stroke="#c9a84c" stroke-width="1.5"/><line x1="-0.0" y1="-54.0" x2="-0.0" y2="-60.0" stroke="#c9a84c" stroke-width="1.5"/><line x1="9.4" y1="-53.2" x2="10.4" y2="-59.1" stroke="#c9a84c" stroke-width="1.5"/><line x1="18.5" y1="-50.7" x2="20.5" y2="-56.4" stroke="#c9a84c" stroke-width="1.5"/><line x1="27.0" y1="-46.8" x2="30.0" y2="-52.0" stroke="#c9a84c" stroke-width="1.5"/><line x1="34.7" y1="-41.4" x2="38.6" y2="-46.0" stroke="#c9a84c" stroke-width="1.5"/><line x1="41.4" y1="-34.7" x2="46.0" y2="-38.6" stroke="#c9a84c" stroke-width="1.5"/><line x1="46.8" y1="-27.0" x2="52.0" y2="-30.0" stroke="#c9a84c" stroke-width="1.5"/><line x1="50.7" y1="-18.5" x2="56.4" y2="-20.5" stroke="#c9a84c" stroke-width="1.5"/><line x1="53.2" y1="-9.4" x2="59.1" y2="-10.4" stroke="#c9a84c" stroke-width="1.5"/>
    <text y="-3" text-anchor="middle" font-size="26" font-weight="bold" fill="#c9a84c">KDF</text>
    <text y="17" text-anchor="middle" font-size="10" fill="#fdf8f0" letter-spacing="1.5">BHARAT</text>
  </g>
  <rect x="350" y="286" width="300" height="34" rx="17" fill="#fdf8f0" stroke="#c9a84c" stroke-width="1.2"/>
  <text x="500" y="309" text-anchor="middle" font-size="13" font-weight="bold" fill="#a8842f" letter-spacing="2">REGISTRATION CERTIFICATE</text>
  <text x="500" y="372" text-anchor="middle" font-size="32" font-weight="bold" fill="#1a1f4e">80G Tax Exemption</text>
  <text x="500" y="402" text-anchor="middle" font-size="15" fill="#a8842f" font-style="italic">Income Tax Act, 1961 — Section 80G</text>
  <text x="500" y="450" text-anchor="middle" font-size="15" fill="#4a4a4a">This certifies that donations made to Krrishna Dhwarka Foundation</text><text x="500" y="476" text-anchor="middle" font-size="15" fill="#4a4a4a">Bharat are eligible for tax deduction under Section 80G of the</text><text x="500" y="502" text-anchor="middle" font-size="15" fill="#4a4a4a">Income Tax Act, 1961.</text>
  <text x="225" y="600" text-anchor="middle" font-size="12" fill="#666">Ref No: KDF/80G/2024/0142</text>
  <line x1="135" y1="588" x2="315" y2="588" stroke="#1a1f4e" stroke-width="1"/>
  <text x="225" y="616" text-anchor="middle" font-size="11" fill="#888">Registration Authority</text>
  <text x="775" y="588" text-anchor="middle" font-size="14" font-weight="bold" fill="#1a1f4e">For KDF Bharat</text>
  <line x1="685" y1="600" x2="865" y2="600" stroke="#1a1f4e" stroke-width="1"/>
  <text x="775" y="616" text-anchor="middle" font-size="11" fill="#888">Authorised Signatory</text>
  <text x="500" y="662" text-anchor="middle" font-size="13" fill="#555">Issued on 12 January 2024</text>
</svg>